<mxfile host="app.diagrams.net" modified="2023-09-22T14:52:22.310Z" agent="Mozilla/5.0 (Windows NT 10.0; Win64; x64) AppleWebKit/537.36 (KHTML, like Gecko) Chrome/117.0.0.0 Safari/537.36" etag="a8bce8PgSivpSYrwxgEE" version="21.8.0" type="device">
  <diagram name="Page-1" id="Z1o0S-1UiB2O78mmnhZ5">
    <mxGraphModel dx="2613" dy="2514" grid="1" gridSize="10" guides="1" tooltips="1" connect="1" arrows="1" fold="1" page="1" pageScale="1" pageWidth="900" pageHeight="1600" math="0" shadow="0">
      <root>
        <mxCell id="0" />
        <mxCell id="1" parent="0" />
        <mxCell id="7prxL0X5nxJNrFzSoVeQ-21" value="&amp;lt;&amp;lt;Interface&amp;gt;&amp;gt;&lt;br&gt;ICommand" style="swimlane;fontStyle=1;align=center;verticalAlign=top;childLayout=stackLayout;horizontal=1;startSize=41;horizontalStack=0;resizeParent=1;resizeParentMax=0;resizeLast=0;collapsible=1;marginBottom=0;whiteSpace=wrap;html=1;labelBackgroundColor=none;fillColor=#B2C9AB;strokeColor=#788AA3;fontColor=#46495D;" vertex="1" parent="1">
          <mxGeometry x="150" y="632.5" width="160" height="75" as="geometry" />
        </mxCell>
        <mxCell id="7prxL0X5nxJNrFzSoVeQ-23" value="" style="line;strokeWidth=1;fillColor=none;align=left;verticalAlign=middle;spacingTop=-1;spacingLeft=3;spacingRight=3;rotatable=0;labelPosition=right;points=[];portConstraint=eastwest;labelBackgroundColor=none;strokeColor=#788AA3;fontColor=#46495D;" vertex="1" parent="7prxL0X5nxJNrFzSoVeQ-21">
          <mxGeometry y="41" width="160" height="8" as="geometry" />
        </mxCell>
        <mxCell id="7prxL0X5nxJNrFzSoVeQ-24" value="+ Execute(): void" style="text;strokeColor=none;fillColor=none;align=left;verticalAlign=top;spacingLeft=4;spacingRight=4;overflow=hidden;rotatable=0;points=[[0,0.5],[1,0.5]];portConstraint=eastwest;whiteSpace=wrap;html=1;labelBackgroundColor=none;fontColor=#46495D;" vertex="1" parent="7prxL0X5nxJNrFzSoVeQ-21">
          <mxGeometry y="49" width="160" height="26" as="geometry" />
        </mxCell>
        <mxCell id="7prxL0X5nxJNrFzSoVeQ-122" style="edgeStyle=orthogonalEdgeStyle;rounded=0;orthogonalLoop=1;jettySize=auto;html=1;fontColor=default;endSize=16;labelBackgroundColor=none;strokeColor=#788AA3;" edge="1" parent="1" source="7prxL0X5nxJNrFzSoVeQ-25" target="7prxL0X5nxJNrFzSoVeQ-108">
          <mxGeometry relative="1" as="geometry" />
        </mxCell>
        <mxCell id="7prxL0X5nxJNrFzSoVeQ-25" value="TileCommand" style="swimlane;fontStyle=1;align=center;verticalAlign=top;childLayout=stackLayout;horizontal=1;startSize=26;horizontalStack=0;resizeParent=1;resizeParentMax=0;resizeLast=0;collapsible=1;marginBottom=0;whiteSpace=wrap;html=1;labelBackgroundColor=none;fillColor=#B2C9AB;strokeColor=#788AA3;fontColor=#46495D;" vertex="1" parent="1">
          <mxGeometry x="495" y="648" width="160" height="60" as="geometry" />
        </mxCell>
        <mxCell id="7prxL0X5nxJNrFzSoVeQ-26" value="# tileData: TileData" style="text;strokeColor=none;fillColor=none;align=left;verticalAlign=top;spacingLeft=4;spacingRight=4;overflow=hidden;rotatable=0;points=[[0,0.5],[1,0.5]];portConstraint=eastwest;whiteSpace=wrap;html=1;labelBackgroundColor=none;fontColor=#46495D;" vertex="1" parent="7prxL0X5nxJNrFzSoVeQ-25">
          <mxGeometry y="26" width="160" height="26" as="geometry" />
        </mxCell>
        <mxCell id="7prxL0X5nxJNrFzSoVeQ-27" value="" style="line;strokeWidth=1;fillColor=none;align=left;verticalAlign=middle;spacingTop=-1;spacingLeft=3;spacingRight=3;rotatable=0;labelPosition=right;points=[];portConstraint=eastwest;labelBackgroundColor=none;strokeColor=#788AA3;fontColor=#46495D;" vertex="1" parent="7prxL0X5nxJNrFzSoVeQ-25">
          <mxGeometry y="52" width="160" height="8" as="geometry" />
        </mxCell>
        <mxCell id="7prxL0X5nxJNrFzSoVeQ-33" style="edgeStyle=orthogonalEdgeStyle;rounded=0;orthogonalLoop=1;jettySize=auto;html=1;entryX=0.5;entryY=1;entryDx=0;entryDy=0;endArrow=block;endFill=0;labelBackgroundColor=none;fontColor=default;endSize=16;strokeColor=#788AA3;" edge="1" parent="1" source="7prxL0X5nxJNrFzSoVeQ-29" target="7prxL0X5nxJNrFzSoVeQ-25">
          <mxGeometry relative="1" as="geometry" />
        </mxCell>
        <mxCell id="7prxL0X5nxJNrFzSoVeQ-34" style="edgeStyle=orthogonalEdgeStyle;rounded=0;orthogonalLoop=1;jettySize=auto;html=1;dashed=1;endArrow=block;endFill=0;labelBackgroundColor=none;fontColor=default;endSize=16;strokeColor=#788AA3;" edge="1" parent="1" source="7prxL0X5nxJNrFzSoVeQ-29" target="7prxL0X5nxJNrFzSoVeQ-21">
          <mxGeometry relative="1" as="geometry">
            <mxPoint x="550" y="665.5" as="targetPoint" />
          </mxGeometry>
        </mxCell>
        <mxCell id="7prxL0X5nxJNrFzSoVeQ-29" value="PloughCommand" style="swimlane;fontStyle=1;align=center;verticalAlign=top;childLayout=stackLayout;horizontal=1;startSize=26;horizontalStack=0;resizeParent=1;resizeParentMax=0;resizeLast=0;collapsible=1;marginBottom=0;whiteSpace=wrap;html=1;labelBackgroundColor=none;fillColor=#B2C9AB;strokeColor=#788AA3;fontColor=#46495D;" vertex="1" parent="1">
          <mxGeometry x="330" y="746" width="160" height="60" as="geometry" />
        </mxCell>
        <mxCell id="7prxL0X5nxJNrFzSoVeQ-31" value="" style="line;strokeWidth=1;fillColor=none;align=left;verticalAlign=middle;spacingTop=-1;spacingLeft=3;spacingRight=3;rotatable=0;labelPosition=right;points=[];portConstraint=eastwest;labelBackgroundColor=none;strokeColor=#788AA3;fontColor=#46495D;" vertex="1" parent="7prxL0X5nxJNrFzSoVeQ-29">
          <mxGeometry y="26" width="160" height="8" as="geometry" />
        </mxCell>
        <mxCell id="7prxL0X5nxJNrFzSoVeQ-32" value="+ Execute(): void" style="text;strokeColor=none;fillColor=none;align=left;verticalAlign=top;spacingLeft=4;spacingRight=4;overflow=hidden;rotatable=0;points=[[0,0.5],[1,0.5]];portConstraint=eastwest;whiteSpace=wrap;html=1;labelBackgroundColor=none;fontColor=#46495D;" vertex="1" parent="7prxL0X5nxJNrFzSoVeQ-29">
          <mxGeometry y="34" width="160" height="26" as="geometry" />
        </mxCell>
        <mxCell id="7prxL0X5nxJNrFzSoVeQ-143" style="edgeStyle=orthogonalEdgeStyle;rounded=0;orthogonalLoop=1;jettySize=auto;html=1;fontColor=default;endSize=16;endArrow=block;endFill=0;labelBackgroundColor=none;strokeColor=#788AA3;" edge="1" parent="1" source="7prxL0X5nxJNrFzSoVeQ-36" target="7prxL0X5nxJNrFzSoVeQ-139">
          <mxGeometry relative="1" as="geometry" />
        </mxCell>
        <mxCell id="7prxL0X5nxJNrFzSoVeQ-36" value="GameManager" style="swimlane;fontStyle=1;align=center;verticalAlign=top;childLayout=stackLayout;horizontal=1;startSize=30;horizontalStack=0;resizeParent=1;resizeParentMax=0;resizeLast=0;collapsible=1;marginBottom=0;whiteSpace=wrap;html=1;labelBackgroundColor=none;fillColor=#B2C9AB;strokeColor=#788AA3;fontColor=#46495D;" vertex="1" parent="1">
          <mxGeometry x="-30" y="-50" width="240" height="298" as="geometry" />
        </mxCell>
        <mxCell id="7prxL0X5nxJNrFzSoVeQ-37" value="+ availableCrops: Crop[]" style="text;strokeColor=none;fillColor=none;align=left;verticalAlign=top;spacingLeft=4;spacingRight=4;overflow=hidden;rotatable=0;points=[[0,0.5],[1,0.5]];portConstraint=eastwest;whiteSpace=wrap;html=1;labelBackgroundColor=none;fontColor=#46495D;" vertex="1" parent="7prxL0X5nxJNrFzSoVeQ-36">
          <mxGeometry y="30" width="240" height="26" as="geometry" />
        </mxCell>
        <mxCell id="7prxL0X5nxJNrFzSoVeQ-38" value="+ availableGroundTypes: GroundType[]" style="text;strokeColor=none;fillColor=none;align=left;verticalAlign=top;spacingLeft=4;spacingRight=4;overflow=hidden;rotatable=0;points=[[0,0.5],[1,0.5]];portConstraint=eastwest;whiteSpace=wrap;html=1;labelBackgroundColor=none;fontColor=#46495D;" vertex="1" parent="7prxL0X5nxJNrFzSoVeQ-36">
          <mxGeometry y="56" width="240" height="26" as="geometry" />
        </mxCell>
        <mxCell id="7prxL0X5nxJNrFzSoVeQ-136" value="+ land: List&amp;lt;TileObject&amp;gt;" style="text;strokeColor=none;fillColor=none;align=left;verticalAlign=top;spacingLeft=4;spacingRight=4;overflow=hidden;rotatable=0;points=[[0,0.5],[1,0.5]];portConstraint=eastwest;whiteSpace=wrap;html=1;labelBackgroundColor=none;fontColor=#46495D;" vertex="1" parent="7prxL0X5nxJNrFzSoVeQ-36">
          <mxGeometry y="82" width="240" height="26" as="geometry" />
        </mxCell>
        <mxCell id="7prxL0X5nxJNrFzSoVeQ-133" value="+ tileObjectFactory: TileObjectFactory" style="text;strokeColor=none;fillColor=none;align=left;verticalAlign=top;spacingLeft=4;spacingRight=4;overflow=hidden;rotatable=0;points=[[0,0.5],[1,0.5]];portConstraint=eastwest;whiteSpace=wrap;html=1;labelBackgroundColor=none;fontColor=#46495D;" vertex="1" parent="7prxL0X5nxJNrFzSoVeQ-36">
          <mxGeometry y="108" width="240" height="26" as="geometry" />
        </mxCell>
        <mxCell id="7prxL0X5nxJNrFzSoVeQ-134" value="+ inputManager: InputManager" style="text;strokeColor=none;fillColor=none;align=left;verticalAlign=top;spacingLeft=4;spacingRight=4;overflow=hidden;rotatable=0;points=[[0,0.5],[1,0.5]];portConstraint=eastwest;whiteSpace=wrap;html=1;labelBackgroundColor=none;fontColor=#46495D;" vertex="1" parent="7prxL0X5nxJNrFzSoVeQ-36">
          <mxGeometry y="134" width="240" height="26" as="geometry" />
        </mxCell>
        <mxCell id="7prxL0X5nxJNrFzSoVeQ-135" value="+ selectionManager: SelectionManager" style="text;strokeColor=none;fillColor=none;align=left;verticalAlign=top;spacingLeft=4;spacingRight=4;overflow=hidden;rotatable=0;points=[[0,0.5],[1,0.5]];portConstraint=eastwest;whiteSpace=wrap;html=1;labelBackgroundColor=none;fontColor=#46495D;" vertex="1" parent="7prxL0X5nxJNrFzSoVeQ-36">
          <mxGeometry y="160" width="240" height="26" as="geometry" />
        </mxCell>
        <mxCell id="7prxL0X5nxJNrFzSoVeQ-39" value="" style="line;strokeWidth=1;fillColor=none;align=left;verticalAlign=middle;spacingTop=-1;spacingLeft=3;spacingRight=3;rotatable=0;labelPosition=right;points=[];portConstraint=eastwest;labelBackgroundColor=none;strokeColor=#788AA3;fontColor=#46495D;" vertex="1" parent="7prxL0X5nxJNrFzSoVeQ-36">
          <mxGeometry y="186" width="240" height="8" as="geometry" />
        </mxCell>
        <mxCell id="7prxL0X5nxJNrFzSoVeQ-40" value="+ Awake(): void" style="text;strokeColor=none;fillColor=none;align=left;verticalAlign=top;spacingLeft=4;spacingRight=4;overflow=hidden;rotatable=0;points=[[0,0.5],[1,0.5]];portConstraint=eastwest;whiteSpace=wrap;html=1;labelBackgroundColor=none;fontColor=#46495D;" vertex="1" parent="7prxL0X5nxJNrFzSoVeQ-36">
          <mxGeometry y="194" width="240" height="26" as="geometry" />
        </mxCell>
        <mxCell id="7prxL0X5nxJNrFzSoVeQ-130" value="+ Update(): void" style="text;strokeColor=none;fillColor=none;align=left;verticalAlign=top;spacingLeft=4;spacingRight=4;overflow=hidden;rotatable=0;points=[[0,0.5],[1,0.5]];portConstraint=eastwest;whiteSpace=wrap;html=1;labelBackgroundColor=none;fontColor=#46495D;" vertex="1" parent="7prxL0X5nxJNrFzSoVeQ-36">
          <mxGeometry y="220" width="240" height="26" as="geometry" />
        </mxCell>
        <mxCell id="7prxL0X5nxJNrFzSoVeQ-131" value="+ FixedUpdate(): void" style="text;strokeColor=none;fillColor=none;align=left;verticalAlign=top;spacingLeft=4;spacingRight=4;overflow=hidden;rotatable=0;points=[[0,0.5],[1,0.5]];portConstraint=eastwest;whiteSpace=wrap;html=1;labelBackgroundColor=none;fontColor=#46495D;" vertex="1" parent="7prxL0X5nxJNrFzSoVeQ-36">
          <mxGeometry y="246" width="240" height="26" as="geometry" />
        </mxCell>
        <mxCell id="7prxL0X5nxJNrFzSoVeQ-132" value="+ SetupLand(): void" style="text;strokeColor=none;fillColor=none;align=left;verticalAlign=top;spacingLeft=4;spacingRight=4;overflow=hidden;rotatable=0;points=[[0,0.5],[1,0.5]];portConstraint=eastwest;whiteSpace=wrap;html=1;labelBackgroundColor=none;fontColor=#46495D;" vertex="1" parent="7prxL0X5nxJNrFzSoVeQ-36">
          <mxGeometry y="272" width="240" height="26" as="geometry" />
        </mxCell>
        <mxCell id="7prxL0X5nxJNrFzSoVeQ-89" style="edgeStyle=orthogonalEdgeStyle;rounded=0;orthogonalLoop=1;jettySize=auto;html=1;fontColor=default;endArrow=diamondThin;endFill=1;endSize=16;labelBackgroundColor=none;strokeColor=#788AA3;" edge="1" parent="1" source="7prxL0X5nxJNrFzSoVeQ-41" target="7prxL0X5nxJNrFzSoVeQ-36">
          <mxGeometry relative="1" as="geometry" />
        </mxCell>
        <mxCell id="7prxL0X5nxJNrFzSoVeQ-41" value="TileObjectFactory&lt;br&gt;" style="swimlane;fontStyle=1;align=center;verticalAlign=top;childLayout=stackLayout;horizontal=1;startSize=30;horizontalStack=0;resizeParent=1;resizeParentMax=0;resizeLast=0;collapsible=1;marginBottom=0;whiteSpace=wrap;html=1;labelBackgroundColor=none;fillColor=#B2C9AB;strokeColor=#788AA3;fontColor=#46495D;" vertex="1" parent="1">
          <mxGeometry x="220" y="270" width="200" height="64" as="geometry" />
        </mxCell>
        <mxCell id="7prxL0X5nxJNrFzSoVeQ-44" value="" style="line;strokeWidth=1;fillColor=none;align=left;verticalAlign=middle;spacingTop=-1;spacingLeft=3;spacingRight=3;rotatable=0;labelPosition=right;points=[];portConstraint=eastwest;labelBackgroundColor=none;strokeColor=#788AA3;fontColor=#46495D;" vertex="1" parent="7prxL0X5nxJNrFzSoVeQ-41">
          <mxGeometry y="30" width="200" height="8" as="geometry" />
        </mxCell>
        <mxCell id="7prxL0X5nxJNrFzSoVeQ-45" value="+ CreateTileObject(): TileObject" style="text;strokeColor=none;fillColor=none;align=left;verticalAlign=top;spacingLeft=4;spacingRight=4;overflow=hidden;rotatable=0;points=[[0,0.5],[1,0.5]];portConstraint=eastwest;whiteSpace=wrap;html=1;labelBackgroundColor=none;fontColor=#46495D;" vertex="1" parent="7prxL0X5nxJNrFzSoVeQ-41">
          <mxGeometry y="38" width="200" height="26" as="geometry" />
        </mxCell>
        <mxCell id="7prxL0X5nxJNrFzSoVeQ-73" style="edgeStyle=orthogonalEdgeStyle;rounded=0;orthogonalLoop=1;jettySize=auto;html=1;fontColor=default;labelBackgroundColor=none;endSize=16;strokeColor=#788AA3;" edge="1" parent="1" source="7prxL0X5nxJNrFzSoVeQ-46" target="7prxL0X5nxJNrFzSoVeQ-41">
          <mxGeometry relative="1" as="geometry" />
        </mxCell>
        <mxCell id="7prxL0X5nxJNrFzSoVeQ-137" style="edgeStyle=orthogonalEdgeStyle;rounded=0;orthogonalLoop=1;jettySize=auto;html=1;fontColor=default;endSize=16;labelBackgroundColor=none;strokeColor=#788AA3;" edge="1" parent="1" source="7prxL0X5nxJNrFzSoVeQ-46" target="7prxL0X5nxJNrFzSoVeQ-136">
          <mxGeometry relative="1" as="geometry" />
        </mxCell>
        <mxCell id="7prxL0X5nxJNrFzSoVeQ-46" value="TileObject" style="swimlane;fontStyle=1;align=center;verticalAlign=top;childLayout=stackLayout;horizontal=1;startSize=30;horizontalStack=0;resizeParent=1;resizeParentMax=0;resizeLast=0;collapsible=1;marginBottom=0;whiteSpace=wrap;html=1;labelBackgroundColor=none;fillColor=#B2C9AB;strokeColor=#788AA3;fontColor=#46495D;" vertex="1" parent="1">
          <mxGeometry x="480" y="145" width="200" height="194" as="geometry" />
        </mxCell>
        <mxCell id="7prxL0X5nxJNrFzSoVeQ-49" value="&lt;div style=&quot;border-color: var(--border-color); text-align: center;&quot;&gt;+ collider: MeshCollider&lt;/div&gt;" style="text;strokeColor=none;fillColor=none;align=left;verticalAlign=top;spacingLeft=4;spacingRight=4;overflow=hidden;rotatable=0;points=[[0,0.5],[1,0.5]];portConstraint=eastwest;whiteSpace=wrap;html=1;labelBackgroundColor=none;fontColor=#46495D;" vertex="1" parent="7prxL0X5nxJNrFzSoVeQ-46">
          <mxGeometry y="30" width="200" height="26" as="geometry" />
        </mxCell>
        <mxCell id="7prxL0X5nxJNrFzSoVeQ-50" value="&lt;div style=&quot;border-color: var(--border-color); text-align: center;&quot;&gt;+ meshFilter: MeshFilter&lt;/div&gt;" style="text;strokeColor=none;fillColor=none;align=left;verticalAlign=top;spacingLeft=4;spacingRight=4;overflow=hidden;rotatable=0;points=[[0,0.5],[1,0.5]];portConstraint=eastwest;whiteSpace=wrap;html=1;labelBackgroundColor=none;fontColor=#46495D;" vertex="1" parent="7prxL0X5nxJNrFzSoVeQ-46">
          <mxGeometry y="56" width="200" height="26" as="geometry" />
        </mxCell>
        <mxCell id="7prxL0X5nxJNrFzSoVeQ-51" value="&lt;div style=&quot;border-color: var(--border-color); text-align: center;&quot;&gt;+ meshRenderer: MeshRenderer&lt;/div&gt;" style="text;strokeColor=none;fillColor=none;align=left;verticalAlign=top;spacingLeft=4;spacingRight=4;overflow=hidden;rotatable=0;points=[[0,0.5],[1,0.5]];portConstraint=eastwest;whiteSpace=wrap;html=1;labelBackgroundColor=none;fontColor=#46495D;" vertex="1" parent="7prxL0X5nxJNrFzSoVeQ-46">
          <mxGeometry y="82" width="200" height="26" as="geometry" />
        </mxCell>
        <mxCell id="7prxL0X5nxJNrFzSoVeQ-52" value="&lt;div style=&quot;border-color: var(--border-color); text-align: center;&quot;&gt;+ transform: Transform&lt;/div&gt;" style="text;strokeColor=none;fillColor=none;align=left;verticalAlign=top;spacingLeft=4;spacingRight=4;overflow=hidden;rotatable=0;points=[[0,0.5],[1,0.5]];portConstraint=eastwest;whiteSpace=wrap;html=1;labelBackgroundColor=none;fontColor=#46495D;" vertex="1" parent="7prxL0X5nxJNrFzSoVeQ-46">
          <mxGeometry y="108" width="200" height="26" as="geometry" />
        </mxCell>
        <mxCell id="7prxL0X5nxJNrFzSoVeQ-53" value="&lt;div style=&quot;border-color: var(--border-color); text-align: center;&quot;&gt;+ tileData: TileData&lt;/div&gt;" style="text;strokeColor=none;fillColor=none;align=left;verticalAlign=top;spacingLeft=4;spacingRight=4;overflow=hidden;rotatable=0;points=[[0,0.5],[1,0.5]];portConstraint=eastwest;whiteSpace=wrap;html=1;labelBackgroundColor=none;fontColor=#46495D;" vertex="1" parent="7prxL0X5nxJNrFzSoVeQ-46">
          <mxGeometry y="134" width="200" height="26" as="geometry" />
        </mxCell>
        <mxCell id="7prxL0X5nxJNrFzSoVeQ-47" value="" style="line;strokeWidth=1;fillColor=none;align=left;verticalAlign=middle;spacingTop=-1;spacingLeft=3;spacingRight=3;rotatable=0;labelPosition=right;points=[];portConstraint=eastwest;labelBackgroundColor=none;strokeColor=#788AA3;fontColor=#46495D;" vertex="1" parent="7prxL0X5nxJNrFzSoVeQ-46">
          <mxGeometry y="160" width="200" height="8" as="geometry" />
        </mxCell>
        <mxCell id="7prxL0X5nxJNrFzSoVeQ-48" value="+ TileUpdate(): void" style="text;strokeColor=none;fillColor=none;align=left;verticalAlign=top;spacingLeft=4;spacingRight=4;overflow=hidden;rotatable=0;points=[[0,0.5],[1,0.5]];portConstraint=eastwest;whiteSpace=wrap;html=1;labelBackgroundColor=none;fontColor=#46495D;" vertex="1" parent="7prxL0X5nxJNrFzSoVeQ-46">
          <mxGeometry y="168" width="200" height="26" as="geometry" />
        </mxCell>
        <mxCell id="7prxL0X5nxJNrFzSoVeQ-72" style="edgeStyle=orthogonalEdgeStyle;rounded=0;orthogonalLoop=1;jettySize=auto;html=1;fontColor=default;labelBackgroundColor=none;endSize=16;strokeColor=#788AA3;" edge="1" parent="1" source="7prxL0X5nxJNrFzSoVeQ-56" target="7prxL0X5nxJNrFzSoVeQ-64">
          <mxGeometry relative="1" as="geometry" />
        </mxCell>
        <mxCell id="7prxL0X5nxJNrFzSoVeQ-138" style="edgeStyle=orthogonalEdgeStyle;rounded=0;orthogonalLoop=1;jettySize=auto;html=1;fontColor=default;endSize=16;labelBackgroundColor=none;strokeColor=#788AA3;" edge="1" parent="1" source="7prxL0X5nxJNrFzSoVeQ-56" target="7prxL0X5nxJNrFzSoVeQ-36">
          <mxGeometry relative="1" as="geometry" />
        </mxCell>
        <mxCell id="7prxL0X5nxJNrFzSoVeQ-56" value="&amp;lt;&amp;lt;static&amp;gt;&amp;gt;&lt;br&gt;EventManager" style="swimlane;fontStyle=1;align=center;verticalAlign=top;childLayout=stackLayout;horizontal=1;startSize=40;horizontalStack=0;resizeParent=1;resizeParentMax=0;resizeLast=0;collapsible=1;marginBottom=0;whiteSpace=wrap;html=1;labelBackgroundColor=none;fillColor=#B2C9AB;strokeColor=#788AA3;fontColor=#46495D;" vertex="1" parent="1">
          <mxGeometry x="600" y="-70" width="280" height="152" as="geometry" />
        </mxCell>
        <mxCell id="7prxL0X5nxJNrFzSoVeQ-57" value="&lt;div style=&quot;border-color: var(--border-color); text-align: center;&quot;&gt;+ eventDictionary : Dictionary&amp;lt;EventType, Action&amp;gt;&lt;/div&gt;" style="text;strokeColor=none;fillColor=none;align=left;verticalAlign=top;spacingLeft=4;spacingRight=4;overflow=hidden;rotatable=0;points=[[0,0.5],[1,0.5]];portConstraint=eastwest;whiteSpace=wrap;html=1;labelBackgroundColor=none;fontColor=#46495D;" vertex="1" parent="7prxL0X5nxJNrFzSoVeQ-56">
          <mxGeometry y="40" width="280" height="26" as="geometry" />
        </mxCell>
        <mxCell id="7prxL0X5nxJNrFzSoVeQ-62" value="" style="line;strokeWidth=1;fillColor=none;align=left;verticalAlign=middle;spacingTop=-1;spacingLeft=3;spacingRight=3;rotatable=0;labelPosition=right;points=[];portConstraint=eastwest;labelBackgroundColor=none;strokeColor=#788AA3;fontColor=#46495D;" vertex="1" parent="7prxL0X5nxJNrFzSoVeQ-56">
          <mxGeometry y="66" width="280" height="8" as="geometry" />
        </mxCell>
        <mxCell id="7prxL0X5nxJNrFzSoVeQ-63" value="+ AddListener(eventType, action): void" style="text;strokeColor=none;fillColor=none;align=left;verticalAlign=top;spacingLeft=4;spacingRight=4;overflow=hidden;rotatable=0;points=[[0,0.5],[1,0.5]];portConstraint=eastwest;whiteSpace=wrap;html=1;labelBackgroundColor=none;fontColor=#46495D;" vertex="1" parent="7prxL0X5nxJNrFzSoVeQ-56">
          <mxGeometry y="74" width="280" height="26" as="geometry" />
        </mxCell>
        <mxCell id="7prxL0X5nxJNrFzSoVeQ-60" value="&lt;div style=&quot;border-color: var(--border-color); text-align: center;&quot;&gt;+ RemoveListener(evenType, Action): void&lt;br&gt;&lt;/div&gt;" style="text;strokeColor=none;fillColor=none;align=left;verticalAlign=top;spacingLeft=4;spacingRight=4;overflow=hidden;rotatable=0;points=[[0,0.5],[1,0.5]];portConstraint=eastwest;whiteSpace=wrap;html=1;labelBackgroundColor=none;fontColor=#46495D;" vertex="1" parent="7prxL0X5nxJNrFzSoVeQ-56">
          <mxGeometry y="100" width="280" height="26" as="geometry" />
        </mxCell>
        <mxCell id="7prxL0X5nxJNrFzSoVeQ-58" value="&lt;div style=&quot;border-color: var(--border-color); text-align: center;&quot;&gt;+ InvokeEvent(eventType): void&lt;/div&gt;" style="text;strokeColor=none;fillColor=none;align=left;verticalAlign=top;spacingLeft=4;spacingRight=4;overflow=hidden;rotatable=0;points=[[0,0.5],[1,0.5]];portConstraint=eastwest;whiteSpace=wrap;html=1;labelBackgroundColor=none;fontColor=#46495D;" vertex="1" parent="7prxL0X5nxJNrFzSoVeQ-56">
          <mxGeometry y="126" width="280" height="26" as="geometry" />
        </mxCell>
        <mxCell id="7prxL0X5nxJNrFzSoVeQ-64" value="&amp;lt;&amp;lt;enum&amp;gt;&amp;gt;&lt;br&gt;EventType" style="swimlane;fontStyle=1;align=center;verticalAlign=top;childLayout=stackLayout;horizontal=1;startSize=40;horizontalStack=0;resizeParent=1;resizeParentMax=0;resizeLast=0;collapsible=1;marginBottom=0;whiteSpace=wrap;html=1;labelBackgroundColor=none;fillColor=#B2C9AB;strokeColor=#788AA3;fontColor=#46495D;" vertex="1" parent="1">
          <mxGeometry x="730" y="150" width="130" height="100" as="geometry" />
        </mxCell>
        <mxCell id="7prxL0X5nxJNrFzSoVeQ-65" value="&lt;div style=&quot;border-color: var(--border-color); text-align: center;&quot;&gt;ON_TICK&lt;/div&gt;" style="text;strokeColor=none;fillColor=none;align=left;verticalAlign=top;spacingLeft=4;spacingRight=4;overflow=hidden;rotatable=0;points=[[0,0.5],[1,0.5]];portConstraint=eastwest;whiteSpace=wrap;html=1;labelBackgroundColor=none;fontColor=#46495D;" vertex="1" parent="7prxL0X5nxJNrFzSoVeQ-64">
          <mxGeometry y="40" width="130" height="26" as="geometry" />
        </mxCell>
        <mxCell id="7prxL0X5nxJNrFzSoVeQ-66" value="&lt;div style=&quot;border-color: var(--border-color); text-align: center;&quot;&gt;ON_MOUSE_DOWN&lt;/div&gt;" style="text;strokeColor=none;fillColor=none;align=left;verticalAlign=top;spacingLeft=4;spacingRight=4;overflow=hidden;rotatable=0;points=[[0,0.5],[1,0.5]];portConstraint=eastwest;whiteSpace=wrap;html=1;labelBackgroundColor=none;fontColor=#46495D;" vertex="1" parent="7prxL0X5nxJNrFzSoVeQ-64">
          <mxGeometry y="66" width="130" height="26" as="geometry" />
        </mxCell>
        <mxCell id="7prxL0X5nxJNrFzSoVeQ-70" value="" style="line;strokeWidth=1;fillColor=none;align=left;verticalAlign=middle;spacingTop=-1;spacingLeft=3;spacingRight=3;rotatable=0;labelPosition=right;points=[];portConstraint=eastwest;labelBackgroundColor=none;strokeColor=#788AA3;fontColor=#46495D;" vertex="1" parent="7prxL0X5nxJNrFzSoVeQ-64">
          <mxGeometry y="92" width="130" height="8" as="geometry" />
        </mxCell>
        <mxCell id="7prxL0X5nxJNrFzSoVeQ-85" style="edgeStyle=orthogonalEdgeStyle;rounded=0;orthogonalLoop=1;jettySize=auto;html=1;fontColor=default;endSize=16;endArrow=diamondThin;endFill=1;labelBackgroundColor=none;strokeColor=#788AA3;" edge="1" parent="1" source="7prxL0X5nxJNrFzSoVeQ-75" target="7prxL0X5nxJNrFzSoVeQ-36">
          <mxGeometry relative="1" as="geometry" />
        </mxCell>
        <mxCell id="7prxL0X5nxJNrFzSoVeQ-75" value="InputManager" style="swimlane;fontStyle=1;align=center;verticalAlign=top;childLayout=stackLayout;horizontal=1;startSize=30;horizontalStack=0;resizeParent=1;resizeParentMax=0;resizeLast=0;collapsible=1;marginBottom=0;whiteSpace=wrap;html=1;labelBackgroundColor=none;fillColor=#B2C9AB;strokeColor=#788AA3;fontColor=#46495D;" vertex="1" parent="1">
          <mxGeometry x="220" y="350" width="200" height="64" as="geometry" />
        </mxCell>
        <mxCell id="7prxL0X5nxJNrFzSoVeQ-78" value="" style="line;strokeWidth=1;fillColor=none;align=left;verticalAlign=middle;spacingTop=-1;spacingLeft=3;spacingRight=3;rotatable=0;labelPosition=right;points=[];portConstraint=eastwest;labelBackgroundColor=none;strokeColor=#788AA3;fontColor=#46495D;" vertex="1" parent="7prxL0X5nxJNrFzSoVeQ-75">
          <mxGeometry y="30" width="200" height="8" as="geometry" />
        </mxCell>
        <mxCell id="7prxL0X5nxJNrFzSoVeQ-79" value="+ HandleInput(): void" style="text;strokeColor=none;fillColor=none;align=left;verticalAlign=top;spacingLeft=4;spacingRight=4;overflow=hidden;rotatable=0;points=[[0,0.5],[1,0.5]];portConstraint=eastwest;whiteSpace=wrap;html=1;labelBackgroundColor=none;fontColor=#46495D;" vertex="1" parent="7prxL0X5nxJNrFzSoVeQ-75">
          <mxGeometry y="38" width="200" height="26" as="geometry" />
        </mxCell>
        <mxCell id="7prxL0X5nxJNrFzSoVeQ-88" style="edgeStyle=orthogonalEdgeStyle;rounded=0;orthogonalLoop=1;jettySize=auto;html=1;fontColor=default;endSize=16;endArrow=diamondThin;endFill=1;labelBackgroundColor=none;strokeColor=#788AA3;" edge="1" parent="1" source="7prxL0X5nxJNrFzSoVeQ-80" target="7prxL0X5nxJNrFzSoVeQ-36">
          <mxGeometry relative="1" as="geometry" />
        </mxCell>
        <mxCell id="7prxL0X5nxJNrFzSoVeQ-80" value="SelectionManager" style="swimlane;fontStyle=1;align=center;verticalAlign=top;childLayout=stackLayout;horizontal=1;startSize=30;horizontalStack=0;resizeParent=1;resizeParentMax=0;resizeLast=0;collapsible=1;marginBottom=0;whiteSpace=wrap;html=1;labelBackgroundColor=none;fillColor=#B2C9AB;strokeColor=#788AA3;fontColor=#46495D;" vertex="1" parent="1">
          <mxGeometry x="220" y="430" width="200" height="168" as="geometry" />
        </mxCell>
        <mxCell id="7prxL0X5nxJNrFzSoVeQ-81" value="+ hoverMaterial: Material" style="text;strokeColor=none;fillColor=none;align=left;verticalAlign=top;spacingLeft=4;spacingRight=4;overflow=hidden;rotatable=0;points=[[0,0.5],[1,0.5]];portConstraint=eastwest;whiteSpace=wrap;html=1;labelBackgroundColor=none;fontColor=#46495D;" vertex="1" parent="7prxL0X5nxJNrFzSoVeQ-80">
          <mxGeometry y="30" width="200" height="26" as="geometry" />
        </mxCell>
        <mxCell id="7prxL0X5nxJNrFzSoVeQ-82" value="+ mainCamera: Camera" style="text;strokeColor=none;fillColor=none;align=left;verticalAlign=top;spacingLeft=4;spacingRight=4;overflow=hidden;rotatable=0;points=[[0,0.5],[1,0.5]];portConstraint=eastwest;whiteSpace=wrap;html=1;labelBackgroundColor=none;fontColor=#46495D;" vertex="1" parent="7prxL0X5nxJNrFzSoVeQ-80">
          <mxGeometry y="56" width="200" height="26" as="geometry" />
        </mxCell>
        <mxCell id="7prxL0X5nxJNrFzSoVeQ-83" value="" style="line;strokeWidth=1;fillColor=none;align=left;verticalAlign=middle;spacingTop=-1;spacingLeft=3;spacingRight=3;rotatable=0;labelPosition=right;points=[];portConstraint=eastwest;labelBackgroundColor=none;strokeColor=#788AA3;fontColor=#46495D;" vertex="1" parent="7prxL0X5nxJNrFzSoVeQ-80">
          <mxGeometry y="82" width="200" height="8" as="geometry" />
        </mxCell>
        <mxCell id="7prxL0X5nxJNrFzSoVeQ-84" value="+ OnTick(): void" style="text;strokeColor=none;fillColor=none;align=left;verticalAlign=top;spacingLeft=4;spacingRight=4;overflow=hidden;rotatable=0;points=[[0,0.5],[1,0.5]];portConstraint=eastwest;whiteSpace=wrap;html=1;labelBackgroundColor=none;fontColor=#46495D;" vertex="1" parent="7prxL0X5nxJNrFzSoVeQ-80">
          <mxGeometry y="90" width="200" height="26" as="geometry" />
        </mxCell>
        <mxCell id="7prxL0X5nxJNrFzSoVeQ-86" value="+ OnSelect(): void" style="text;strokeColor=none;fillColor=none;align=left;verticalAlign=top;spacingLeft=4;spacingRight=4;overflow=hidden;rotatable=0;points=[[0,0.5],[1,0.5]];portConstraint=eastwest;whiteSpace=wrap;html=1;labelBackgroundColor=none;fontColor=#46495D;" vertex="1" parent="7prxL0X5nxJNrFzSoVeQ-80">
          <mxGeometry y="116" width="200" height="26" as="geometry" />
        </mxCell>
        <mxCell id="7prxL0X5nxJNrFzSoVeQ-87" value="-&amp;nbsp;TileObjectFromMouseRay(): void" style="text;strokeColor=none;fillColor=none;align=left;verticalAlign=top;spacingLeft=4;spacingRight=4;overflow=hidden;rotatable=0;points=[[0,0.5],[1,0.5]];portConstraint=eastwest;whiteSpace=wrap;html=1;labelBackgroundColor=none;fontColor=#46495D;" vertex="1" parent="7prxL0X5nxJNrFzSoVeQ-80">
          <mxGeometry y="142" width="200" height="26" as="geometry" />
        </mxCell>
        <mxCell id="7prxL0X5nxJNrFzSoVeQ-121" style="edgeStyle=orthogonalEdgeStyle;rounded=0;orthogonalLoop=1;jettySize=auto;html=1;entryX=1;entryY=0.5;entryDx=0;entryDy=0;fontColor=default;endArrow=diamondThin;endFill=1;endSize=16;labelBackgroundColor=none;strokeColor=#788AA3;" edge="1" parent="1" source="7prxL0X5nxJNrFzSoVeQ-90" target="7prxL0X5nxJNrFzSoVeQ-116">
          <mxGeometry relative="1" as="geometry" />
        </mxCell>
        <mxCell id="7prxL0X5nxJNrFzSoVeQ-90" value="&amp;lt;&amp;lt;Scriptable Object&amp;gt;&amp;gt;&lt;br&gt;Crop" style="swimlane;fontStyle=1;align=center;verticalAlign=top;childLayout=stackLayout;horizontal=1;startSize=40;horizontalStack=0;resizeParent=1;resizeParentMax=0;resizeLast=0;collapsible=1;marginBottom=0;whiteSpace=wrap;html=1;labelBackgroundColor=none;fillColor=#B2C9AB;strokeColor=#788AA3;fontColor=#46495D;" vertex="1" parent="1">
          <mxGeometry x="700" y="412" width="170" height="126" as="geometry" />
        </mxCell>
        <mxCell id="7prxL0X5nxJNrFzSoVeQ-91" value="+ cropName: string" style="text;strokeColor=none;fillColor=none;align=left;verticalAlign=top;spacingLeft=4;spacingRight=4;overflow=hidden;rotatable=0;points=[[0,0.5],[1,0.5]];portConstraint=eastwest;whiteSpace=wrap;html=1;labelBackgroundColor=none;fontColor=#46495D;" vertex="1" parent="7prxL0X5nxJNrFzSoVeQ-90">
          <mxGeometry y="40" width="170" height="26" as="geometry" />
        </mxCell>
        <mxCell id="7prxL0X5nxJNrFzSoVeQ-92" value="+ growthChancePerTick: int" style="text;strokeColor=none;fillColor=none;align=left;verticalAlign=top;spacingLeft=4;spacingRight=4;overflow=hidden;rotatable=0;points=[[0,0.5],[1,0.5]];portConstraint=eastwest;whiteSpace=wrap;html=1;labelBackgroundColor=none;fontColor=#46495D;" vertex="1" parent="7prxL0X5nxJNrFzSoVeQ-90">
          <mxGeometry y="66" width="170" height="26" as="geometry" />
        </mxCell>
        <mxCell id="7prxL0X5nxJNrFzSoVeQ-95" value="+ cropPrefabs: GameObject[]" style="text;strokeColor=none;fillColor=none;align=left;verticalAlign=top;spacingLeft=4;spacingRight=4;overflow=hidden;rotatable=0;points=[[0,0.5],[1,0.5]];portConstraint=eastwest;whiteSpace=wrap;html=1;labelBackgroundColor=none;fontColor=#46495D;" vertex="1" parent="7prxL0X5nxJNrFzSoVeQ-90">
          <mxGeometry y="92" width="170" height="26" as="geometry" />
        </mxCell>
        <mxCell id="7prxL0X5nxJNrFzSoVeQ-93" value="" style="line;strokeWidth=1;fillColor=none;align=left;verticalAlign=middle;spacingTop=-1;spacingLeft=3;spacingRight=3;rotatable=0;labelPosition=right;points=[];portConstraint=eastwest;labelBackgroundColor=none;strokeColor=#788AA3;fontColor=#46495D;" vertex="1" parent="7prxL0X5nxJNrFzSoVeQ-90">
          <mxGeometry y="118" width="170" height="8" as="geometry" />
        </mxCell>
        <mxCell id="7prxL0X5nxJNrFzSoVeQ-120" style="edgeStyle=orthogonalEdgeStyle;rounded=0;orthogonalLoop=1;jettySize=auto;html=1;entryX=1;entryY=0.5;entryDx=0;entryDy=0;fontColor=default;endSize=16;endArrow=diamondThin;endFill=1;labelBackgroundColor=none;strokeColor=#788AA3;" edge="1" parent="1" source="7prxL0X5nxJNrFzSoVeQ-96" target="7prxL0X5nxJNrFzSoVeQ-117">
          <mxGeometry relative="1" as="geometry" />
        </mxCell>
        <mxCell id="7prxL0X5nxJNrFzSoVeQ-96" value="&amp;lt;&amp;lt;Scriptable Object&amp;gt;&amp;gt;&lt;br&gt;GroundType" style="swimlane;fontStyle=1;align=center;verticalAlign=top;childLayout=stackLayout;horizontal=1;startSize=40;horizontalStack=0;resizeParent=1;resizeParentMax=0;resizeLast=0;collapsible=1;marginBottom=0;whiteSpace=wrap;html=1;labelBackgroundColor=none;fillColor=#B2C9AB;strokeColor=#788AA3;fontColor=#46495D;" vertex="1" parent="1">
          <mxGeometry x="700" y="620" width="170" height="100" as="geometry" />
        </mxCell>
        <mxCell id="7prxL0X5nxJNrFzSoVeQ-97" value="+ groundTypeName: string" style="text;strokeColor=none;fillColor=none;align=left;verticalAlign=top;spacingLeft=4;spacingRight=4;overflow=hidden;rotatable=0;points=[[0,0.5],[1,0.5]];portConstraint=eastwest;whiteSpace=wrap;html=1;labelBackgroundColor=none;fontColor=#46495D;" vertex="1" parent="7prxL0X5nxJNrFzSoVeQ-96">
          <mxGeometry y="40" width="170" height="26" as="geometry" />
        </mxCell>
        <mxCell id="7prxL0X5nxJNrFzSoVeQ-99" value="+ model: Model" style="text;strokeColor=none;fillColor=none;align=left;verticalAlign=top;spacingLeft=4;spacingRight=4;overflow=hidden;rotatable=0;points=[[0,0.5],[1,0.5]];portConstraint=eastwest;whiteSpace=wrap;html=1;labelBackgroundColor=none;fontColor=#46495D;" vertex="1" parent="7prxL0X5nxJNrFzSoVeQ-96">
          <mxGeometry y="66" width="170" height="26" as="geometry" />
        </mxCell>
        <mxCell id="7prxL0X5nxJNrFzSoVeQ-100" value="" style="line;strokeWidth=1;fillColor=none;align=left;verticalAlign=middle;spacingTop=-1;spacingLeft=3;spacingRight=3;rotatable=0;labelPosition=right;points=[];portConstraint=eastwest;labelBackgroundColor=none;strokeColor=#788AA3;fontColor=#46495D;" vertex="1" parent="7prxL0X5nxJNrFzSoVeQ-96">
          <mxGeometry y="92" width="170" height="8" as="geometry" />
        </mxCell>
        <mxCell id="7prxL0X5nxJNrFzSoVeQ-107" style="edgeStyle=orthogonalEdgeStyle;rounded=0;orthogonalLoop=1;jettySize=auto;html=1;fontColor=default;endArrow=diamondThin;endFill=1;endSize=16;labelBackgroundColor=none;strokeColor=#788AA3;" edge="1" parent="1" source="7prxL0X5nxJNrFzSoVeQ-101" target="7prxL0X5nxJNrFzSoVeQ-96">
          <mxGeometry relative="1" as="geometry" />
        </mxCell>
        <mxCell id="7prxL0X5nxJNrFzSoVeQ-101" value="Model" style="swimlane;fontStyle=1;align=center;verticalAlign=top;childLayout=stackLayout;horizontal=1;startSize=30;horizontalStack=0;resizeParent=1;resizeParentMax=0;resizeLast=0;collapsible=1;marginBottom=0;whiteSpace=wrap;html=1;labelBackgroundColor=none;fillColor=#B2C9AB;strokeColor=#788AA3;fontColor=#46495D;" vertex="1" parent="1">
          <mxGeometry x="700" y="760" width="170" height="116" as="geometry" />
        </mxCell>
        <mxCell id="7prxL0X5nxJNrFzSoVeQ-102" value="+ mesh: Mesh" style="text;strokeColor=none;fillColor=none;align=left;verticalAlign=top;spacingLeft=4;spacingRight=4;overflow=hidden;rotatable=0;points=[[0,0.5],[1,0.5]];portConstraint=eastwest;whiteSpace=wrap;html=1;labelBackgroundColor=none;fontColor=#46495D;" vertex="1" parent="7prxL0X5nxJNrFzSoVeQ-101">
          <mxGeometry y="30" width="170" height="26" as="geometry" />
        </mxCell>
        <mxCell id="7prxL0X5nxJNrFzSoVeQ-103" value="+ materials: Material[]" style="text;strokeColor=none;fillColor=none;align=left;verticalAlign=top;spacingLeft=4;spacingRight=4;overflow=hidden;rotatable=0;points=[[0,0.5],[1,0.5]];portConstraint=eastwest;whiteSpace=wrap;html=1;labelBackgroundColor=none;fontColor=#46495D;" vertex="1" parent="7prxL0X5nxJNrFzSoVeQ-101">
          <mxGeometry y="56" width="170" height="26" as="geometry" />
        </mxCell>
        <mxCell id="7prxL0X5nxJNrFzSoVeQ-105" value="+ scale: Vector3" style="text;strokeColor=none;fillColor=none;align=left;verticalAlign=top;spacingLeft=4;spacingRight=4;overflow=hidden;rotatable=0;points=[[0,0.5],[1,0.5]];portConstraint=eastwest;whiteSpace=wrap;html=1;labelBackgroundColor=none;fontColor=#46495D;" vertex="1" parent="7prxL0X5nxJNrFzSoVeQ-101">
          <mxGeometry y="82" width="170" height="26" as="geometry" />
        </mxCell>
        <mxCell id="7prxL0X5nxJNrFzSoVeQ-104" value="" style="line;strokeWidth=1;fillColor=none;align=left;verticalAlign=middle;spacingTop=-1;spacingLeft=3;spacingRight=3;rotatable=0;labelPosition=right;points=[];portConstraint=eastwest;labelBackgroundColor=none;strokeColor=#788AA3;fontColor=#46495D;" vertex="1" parent="7prxL0X5nxJNrFzSoVeQ-101">
          <mxGeometry y="108" width="170" height="8" as="geometry" />
        </mxCell>
        <mxCell id="7prxL0X5nxJNrFzSoVeQ-119" style="edgeStyle=orthogonalEdgeStyle;rounded=0;orthogonalLoop=1;jettySize=auto;html=1;entryX=1;entryY=0.5;entryDx=0;entryDy=0;fontColor=default;endArrow=diamondThin;endFill=1;endSize=16;labelBackgroundColor=none;strokeColor=#788AA3;" edge="1" parent="1" source="7prxL0X5nxJNrFzSoVeQ-108" target="7prxL0X5nxJNrFzSoVeQ-53">
          <mxGeometry relative="1" as="geometry" />
        </mxCell>
        <mxCell id="7prxL0X5nxJNrFzSoVeQ-108" value="TileData" style="swimlane;fontStyle=1;align=center;verticalAlign=top;childLayout=stackLayout;horizontal=1;startSize=30;horizontalStack=0;resizeParent=1;resizeParentMax=0;resizeLast=0;collapsible=1;marginBottom=0;whiteSpace=wrap;html=1;labelBackgroundColor=none;fillColor=#B2C9AB;strokeColor=#788AA3;fontColor=#46495D;" vertex="1" parent="1">
          <mxGeometry x="490" y="380" width="170" height="246" as="geometry" />
        </mxCell>
        <mxCell id="7prxL0X5nxJNrFzSoVeQ-109" value="+ IsWatered: bool" style="text;strokeColor=none;fillColor=none;align=left;verticalAlign=top;spacingLeft=4;spacingRight=4;overflow=hidden;rotatable=0;points=[[0,0.5],[1,0.5]];portConstraint=eastwest;whiteSpace=wrap;html=1;labelBackgroundColor=none;fontColor=#46495D;" vertex="1" parent="7prxL0X5nxJNrFzSoVeQ-108">
          <mxGeometry y="30" width="170" height="26" as="geometry" />
        </mxCell>
        <mxCell id="7prxL0X5nxJNrFzSoVeQ-110" value="+ IsFertilized: bool" style="text;strokeColor=none;fillColor=none;align=left;verticalAlign=top;spacingLeft=4;spacingRight=4;overflow=hidden;rotatable=0;points=[[0,0.5],[1,0.5]];portConstraint=eastwest;whiteSpace=wrap;html=1;labelBackgroundColor=none;fontColor=#46495D;" vertex="1" parent="7prxL0X5nxJNrFzSoVeQ-108">
          <mxGeometry y="56" width="170" height="26" as="geometry" />
        </mxCell>
        <mxCell id="7prxL0X5nxJNrFzSoVeQ-111" value="+ IsHarvestable: bool" style="text;strokeColor=none;fillColor=none;align=left;verticalAlign=top;spacingLeft=4;spacingRight=4;overflow=hidden;rotatable=0;points=[[0,0.5],[1,0.5]];portConstraint=eastwest;whiteSpace=wrap;html=1;labelBackgroundColor=none;fontColor=#46495D;" vertex="1" parent="7prxL0X5nxJNrFzSoVeQ-108">
          <mxGeometry y="82" width="170" height="26" as="geometry" />
        </mxCell>
        <mxCell id="7prxL0X5nxJNrFzSoVeQ-114" value="+ CurrentGrowthStage: int" style="text;strokeColor=none;fillColor=none;align=left;verticalAlign=top;spacingLeft=4;spacingRight=4;overflow=hidden;rotatable=0;points=[[0,0.5],[1,0.5]];portConstraint=eastwest;whiteSpace=wrap;html=1;labelBackgroundColor=none;fontColor=#46495D;" vertex="1" parent="7prxL0X5nxJNrFzSoVeQ-108">
          <mxGeometry y="108" width="170" height="26" as="geometry" />
        </mxCell>
        <mxCell id="7prxL0X5nxJNrFzSoVeQ-115" value="+ RequiresUpdate: bool" style="text;strokeColor=none;fillColor=none;align=left;verticalAlign=top;spacingLeft=4;spacingRight=4;overflow=hidden;rotatable=0;points=[[0,0.5],[1,0.5]];portConstraint=eastwest;whiteSpace=wrap;html=1;labelBackgroundColor=none;fontColor=#46495D;" vertex="1" parent="7prxL0X5nxJNrFzSoVeQ-108">
          <mxGeometry y="134" width="170" height="26" as="geometry" />
        </mxCell>
        <mxCell id="7prxL0X5nxJNrFzSoVeQ-116" value="+ associatedCrop: Crop" style="text;strokeColor=none;fillColor=none;align=left;verticalAlign=top;spacingLeft=4;spacingRight=4;overflow=hidden;rotatable=0;points=[[0,0.5],[1,0.5]];portConstraint=eastwest;whiteSpace=wrap;html=1;labelBackgroundColor=none;fontColor=#46495D;" vertex="1" parent="7prxL0X5nxJNrFzSoVeQ-108">
          <mxGeometry y="160" width="170" height="26" as="geometry" />
        </mxCell>
        <mxCell id="7prxL0X5nxJNrFzSoVeQ-117" value="+ groundType: GroundType" style="text;strokeColor=none;fillColor=none;align=left;verticalAlign=top;spacingLeft=4;spacingRight=4;overflow=hidden;rotatable=0;points=[[0,0.5],[1,0.5]];portConstraint=eastwest;whiteSpace=wrap;html=1;labelBackgroundColor=none;fontColor=#46495D;" vertex="1" parent="7prxL0X5nxJNrFzSoVeQ-108">
          <mxGeometry y="186" width="170" height="26" as="geometry" />
        </mxCell>
        <mxCell id="7prxL0X5nxJNrFzSoVeQ-112" value="" style="line;strokeWidth=1;fillColor=none;align=left;verticalAlign=middle;spacingTop=-1;spacingLeft=3;spacingRight=3;rotatable=0;labelPosition=right;points=[];portConstraint=eastwest;labelBackgroundColor=none;strokeColor=#788AA3;fontColor=#46495D;" vertex="1" parent="7prxL0X5nxJNrFzSoVeQ-108">
          <mxGeometry y="212" width="170" height="8" as="geometry" />
        </mxCell>
        <mxCell id="7prxL0X5nxJNrFzSoVeQ-118" value="+ IsSeeded(): bool" style="text;strokeColor=none;fillColor=none;align=left;verticalAlign=top;spacingLeft=4;spacingRight=4;overflow=hidden;rotatable=0;points=[[0,0.5],[1,0.5]];portConstraint=eastwest;whiteSpace=wrap;html=1;labelBackgroundColor=none;fontColor=#46495D;" vertex="1" parent="7prxL0X5nxJNrFzSoVeQ-108">
          <mxGeometry y="220" width="170" height="26" as="geometry" />
        </mxCell>
        <mxCell id="7prxL0X5nxJNrFzSoVeQ-126" style="edgeStyle=orthogonalEdgeStyle;rounded=0;orthogonalLoop=1;jettySize=auto;html=1;fontColor=default;endSize=16;endArrow=block;endFill=0;dashed=1;labelBackgroundColor=none;strokeColor=#788AA3;" edge="1" parent="1" source="7prxL0X5nxJNrFzSoVeQ-123" target="7prxL0X5nxJNrFzSoVeQ-21">
          <mxGeometry relative="1" as="geometry" />
        </mxCell>
        <mxCell id="7prxL0X5nxJNrFzSoVeQ-129" style="edgeStyle=orthogonalEdgeStyle;rounded=0;orthogonalLoop=1;jettySize=auto;html=1;fontColor=default;endArrow=block;endFill=0;endSize=16;labelBackgroundColor=none;strokeColor=#788AA3;" edge="1" parent="1" source="7prxL0X5nxJNrFzSoVeQ-123" target="7prxL0X5nxJNrFzSoVeQ-25">
          <mxGeometry relative="1" as="geometry" />
        </mxCell>
        <mxCell id="7prxL0X5nxJNrFzSoVeQ-123" value="WateringCommand" style="swimlane;fontStyle=1;align=center;verticalAlign=top;childLayout=stackLayout;horizontal=1;startSize=26;horizontalStack=0;resizeParent=1;resizeParentMax=0;resizeLast=0;collapsible=1;marginBottom=0;whiteSpace=wrap;html=1;labelBackgroundColor=none;fillColor=#B2C9AB;strokeColor=#788AA3;fontColor=#46495D;" vertex="1" parent="1">
          <mxGeometry x="330" y="816" width="160" height="60" as="geometry" />
        </mxCell>
        <mxCell id="7prxL0X5nxJNrFzSoVeQ-124" value="" style="line;strokeWidth=1;fillColor=none;align=left;verticalAlign=middle;spacingTop=-1;spacingLeft=3;spacingRight=3;rotatable=0;labelPosition=right;points=[];portConstraint=eastwest;labelBackgroundColor=none;strokeColor=#788AA3;fontColor=#46495D;" vertex="1" parent="7prxL0X5nxJNrFzSoVeQ-123">
          <mxGeometry y="26" width="160" height="8" as="geometry" />
        </mxCell>
        <mxCell id="7prxL0X5nxJNrFzSoVeQ-125" value="+ Execute(): void" style="text;strokeColor=none;fillColor=none;align=left;verticalAlign=top;spacingLeft=4;spacingRight=4;overflow=hidden;rotatable=0;points=[[0,0.5],[1,0.5]];portConstraint=eastwest;whiteSpace=wrap;html=1;labelBackgroundColor=none;fontColor=#46495D;" vertex="1" parent="7prxL0X5nxJNrFzSoVeQ-123">
          <mxGeometry y="34" width="160" height="26" as="geometry" />
        </mxCell>
        <mxCell id="7prxL0X5nxJNrFzSoVeQ-139" value="MonoBehaiviour" style="swimlane;fontStyle=1;align=center;verticalAlign=top;childLayout=stackLayout;horizontal=1;startSize=26;horizontalStack=0;resizeParent=1;resizeParentMax=0;resizeLast=0;collapsible=1;marginBottom=0;whiteSpace=wrap;html=1;labelBackgroundColor=none;fillColor=#B2C9AB;strokeColor=#788AA3;fontColor=#46495D;" vertex="1" parent="1">
          <mxGeometry x="10" y="-130" width="160" height="34" as="geometry" />
        </mxCell>
        <mxCell id="7prxL0X5nxJNrFzSoVeQ-141" value="" style="line;strokeWidth=1;fillColor=none;align=left;verticalAlign=middle;spacingTop=-1;spacingLeft=3;spacingRight=3;rotatable=0;labelPosition=right;points=[];portConstraint=eastwest;labelBackgroundColor=none;strokeColor=#788AA3;fontColor=#46495D;" vertex="1" parent="7prxL0X5nxJNrFzSoVeQ-139">
          <mxGeometry y="26" width="160" height="8" as="geometry" />
        </mxCell>
      </root>
    </mxGraphModel>
  </diagram>
</mxfile>
